<mxfile host="app.diagrams.net" modified="2021-04-01T11:00:34.265Z" agent="5.0 (Windows NT 10.0; Win64; x64) AppleWebKit/537.36 (KHTML, like Gecko) Chrome/89.0.4389.90 Safari/537.36" etag="r4AyXiqdnlV8-Gpv0jeC" version="14.5.4" type="github">
  <diagram id="8jP8o3ugvlSPoDd0gYsC" name="Page-1">
    <mxGraphModel dx="782" dy="1537" grid="1" gridSize="10" guides="1" tooltips="1" connect="1" arrows="1" fold="1" page="1" pageScale="1" pageWidth="850" pageHeight="1100" math="0" shadow="0">
      <root>
        <mxCell id="0" />
        <mxCell id="1" parent="0" />
        <mxCell id="3GbCNP2bTMWnphcDTEiY-1" value="Day 1&lt;br&gt;01-04-21&lt;br&gt;1.Choose 2 api&#39;s and check them on postman&lt;br&gt;2.Create main.js and one component for small feature like: to show list of all kind of foods" style="rounded=1;whiteSpace=wrap;html=1;strokeColor=#140E08;" vertex="1" parent="1">
          <mxGeometry x="318.5" y="-280" width="122.5" height="180" as="geometry" />
        </mxCell>
        <mxCell id="3GbCNP2bTMWnphcDTEiY-2" value="tobuy project includes 3 pages /router, 2 Api&#39;s and 6 components" style="shape=document;whiteSpace=wrap;html=1;boundedLbl=1;" vertex="1" parent="1">
          <mxGeometry x="305" y="-410" width="145" height="110" as="geometry" />
        </mxCell>
        <mxCell id="3GbCNP2bTMWnphcDTEiY-5" value="Day 2&lt;br&gt;02-04-21&lt;br&gt;1.create page and components that displays list of several foods by choosing&amp;nbsp; an item like : cheese/che/c&amp;nbsp;&lt;br&gt;2.By clicking to enter getting all kind of foods&amp;nbsp;&amp;nbsp;&lt;br&gt;3.By clicking on a picture of food getting list of Ingredients of this food" style="rounded=1;whiteSpace=wrap;html=1;strokeColor=#140E08;" vertex="1" parent="1">
          <mxGeometry x="318.5" y="-80" width="132.5" height="230" as="geometry" />
        </mxCell>
        <mxCell id="3GbCNP2bTMWnphcDTEiY-6" value="Day 3&lt;br&gt;03-04-21&lt;br&gt;1. Ceate TodoList Component&amp;nbsp;" style="rounded=1;whiteSpace=wrap;html=1;strokeColor=#140E08;" vertex="1" parent="1">
          <mxGeometry x="320" y="170" width="131" height="160" as="geometry" />
        </mxCell>
        <mxCell id="3GbCNP2bTMWnphcDTEiY-7" value="Day 4&lt;br&gt;04-04-21&lt;br&gt;&lt;div style=&quot;text-align: right&quot;&gt;&lt;span&gt;1.Send the list o&lt;/span&gt;&lt;/div&gt;" style="rounded=1;whiteSpace=wrap;html=1;strokeColor=#140E08;" vertex="1" parent="1">
          <mxGeometry x="324.75" y="360" width="120" height="150" as="geometry" />
        </mxCell>
      </root>
    </mxGraphModel>
  </diagram>
</mxfile>
